<?xml version="1.0" encoding="UTF-8"?>
<svg id="Layer_1" data-name="Layer 1" xmlns="http://www.w3.org/2000/svg" viewBox="0 0 1024 1024">
  <defs>
    <style>
      .cls-1 {
        fill: #fff;
      }
    </style>
  </defs>
  <g id="Solid">
    <path class="cls-1" d="M918.9,248.21L536.99,27.71c-15.47-8.93-34.53-8.93-50,0L105.09,248.21c-15.48,8.93-25,25.43-25,43.3v440.98c0,17.87,9.52,34.37,25,43.3l381.9,220.5c7.73,4.46,16.37,6.7,25,6.7s17.26-2.24,25-6.7l381.91-220.5c15.47-8.93,25-25.43,25-43.3v-440.98c0-17.87-9.53-34.37-25-43.3ZM572.88,757.25c0,34.64-27.26,62.72-60.89,62.72s-60.89-28.08-60.89-62.72v-302.33c0-34.64,27.26-62.72,60.89-62.72s60.89,28.08,60.89,62.72v302.33ZM511.99,329.47c-33.63,0-60.89-28.08-60.89-62.72s27.26-62.72,60.89-62.72,60.89,28.08,60.89,62.72-27.26,62.72-60.89,62.72Z"/>
  </g>
</svg>